HIERARCHY
ROOT Hips
{
  OFFSET 1.44925e-005 102.336 -0.101585
  CHANNELS 6 Xposition Yposition Zposition Zrotation Xrotation Yrotation
  JOINT RightUpLeg
  {
    OFFSET -8.9458 -8.66707 0.101652
    CHANNELS 3 Zrotation Xrotation Yrotation
    JOINT RightLeg
    {
      OFFSET 0 -44.4227 1.3727
      CHANNELS 3 Zrotation Xrotation Yrotation
      JOINT RightFoot
      {
        OFFSET 0.253549 -42.0924 -1.46059
        CHANNELS 3 Zrotation Xrotation Yrotation
        JOINT RightToes
        {
          OFFSET 0.04 -4.41509 8.4991
          CHANNELS 3 Zrotation Xrotation Yrotation
          End Site
          {
            OFFSET -0.08 -0.137448 9.77979
          }
        }
      }
    }
  }
  JOINT Spine
  {
    OFFSET 0 11.8905 0
    CHANNELS 3 Zrotation Xrotation Yrotation
    JOINT Spine1
    {
      OFFSET 0 25.6574 0.127663
      CHANNELS 3 Zrotation Xrotation Yrotation
      JOINT HEad
      {
        OFFSET 0 8.73416 0.011341
        CHANNELS 3 Zrotation Xrotation Yrotation
        End Site
        {
          OFFSET -0.29 12.7742 2.51395
        }
      }
      JOINT LeftShoulder1
      {
        OFFSET 8.99 -0.362252 -0.22
        CHANNELS 3 Zrotation Xrotation Yrotation
        JOINT LeftArm
        {
          OFFSET 10.2827 -0.00337999 0.322123
          CHANNELS 3 Zrotation Xrotation Yrotation
          JOINT LeftForeArm
          {
            OFFSET 26.2597 0.099144 -1.42434
            CHANNELS 3 Zrotation Xrotation Yrotation
            JOINT LeftHand
            {
              OFFSET 22.0902 0.085362 1.02216
              CHANNELS 3 Zrotation Xrotation Yrotation
              End Site
              {
                OFFSET 13.419 -0.6 1.50291
              }
            }
          }
        }
      }
      JOINT RightShoulder
      {
        OFFSET -8.99 -0.362252 -0.22
        CHANNELS 3 Zrotation Xrotation Yrotation
        JOINT RightArm
        {
          OFFSET -10.2827 -0.00338 0.322123
          CHANNELS 3 Zrotation Xrotation Yrotation
          JOINT RightForeArm
          {
            OFFSET -26.364 0.099144 -1.42434
            CHANNELS 3 Zrotation Xrotation Yrotation
            JOINT RightHand
            {
              OFFSET -22.0324 0.085362 1.02216
              CHANNELS 3 Zrotation Xrotation Yrotation
              End Site
              {
                OFFSET -13.3284 -0.6 1.50291
              }
            }
          }
        }
      }
    }
  }
  JOINT LeftUpLeg
  {
    OFFSET 8.9458 -8.66707 0.101652
    CHANNELS 3 Zrotation Xrotation Yrotation
    JOINT LeftLeg
    {
      OFFSET 0 -44.4227 1.3727
      CHANNELS 3 Zrotation Xrotation Yrotation
      JOINT LeftFoot
      {
        OFFSET -0.253549 -42.0924 -1.46059
        CHANNELS 3 Zrotation Xrotation Yrotation
        JOINT LeftToes
        {
          OFFSET -0.04 -4.41509 8.4991
          CHANNELS 3 Zrotation Xrotation Yrotation
          End Site
          {
            OFFSET 0.08 -0.047448 9.77979
          }
        }
      }
    }
  }
}
MOTION
Frames:	16
Frame Time:	0.0333333
-5.16818 105.127 41.8377 2.19142 7.3375 178.574 -11.3236 4.63864 -9.48645 1.17688 11.9877 -11.7626 13.6965 -5.54787 -0.412929 0.0462048 0.000530889 0.662642 2.45028 1.55662 -0.52078 -0.121745 4.85862 -0.636428 0.453282 -4.83497 -2.86291 -27.6653 1.8734 -2.03928 -52.3468 -18.1432 -18.1948 -11.3336 31.4239 0.109195 2.35225 9.79681 -1.74257 37.5729 5.82403 9.27304 34.3866 -33.7927 4.13366 6.02917 34.1157 3.37239 -22.5088 8.91253 -0.207935 17.5522 3.22176 10.8353 -2.20073 12.3475 6.37449 -15.5786 -2.20649 0.745096 -1.38477e-009 8.75232e-006 -1.47222e-008 
-5.20574 105.141 41.8488 2.12313 7.37646 178.598 -11.372 4.67489 -9.44999 1.09096 11.9769 -11.8364 13.6478 -5.51202 -0.416077 0.0462048 0.000530889 0.662642 2.3614 1.75178 -0.515871 -0.139268 4.66012 -0.626653 0.455389 -4.74293 -2.79228 -27.6187 1.8867 -2.08608 -52.2668 -18.1576 -17.9783 -11.3703 31.4092 0.189206 3.23328 9.73905 -1.9203 37.6561 5.82442 9.25452 34.3216 -33.8039 4.08271 6.0148 34.3937 3.32585 -22.7274 8.8616 0.00677143 17.4425 3.20694 10.7972 -2.20623 12.4065 6.37563 -15.2775 -2.27668 0.721537 -1.38477e-009 8.75232e-006 -1.47222e-008 
-5.27206 105.167 41.8728 2.06006 7.4082 178.58 -11.4342 4.73823 -9.417 1.01988 11.8523 -11.8876 13.5389 -5.39885 -0.426728 0.0462048 0.000530889 0.662642 2.22981 2.15667 -0.471262 -0.0953759 4.18523 -0.58308 0.467389 -4.57472 -2.70056 -27.58 1.92166 -2.19583 -52.1262 -18.2519 -17.5928 -11.4214 31.5254 0.413583 4.23877 9.66493 -2.32477 37.7931 5.82051 9.20399 34.1739 -33.7901 3.94876 6.02178 34.6202 3.27508 -22.985 8.80143 0.254988 17.3096 3.184 10.7541 -2.21569 12.4747 6.42413 -14.883 -2.36292 0.691893 -1.38477e-009 8.75232e-006 -1.47222e-008 
-5.33384 105.186 41.9029 2.06127 7.40138 178.504 -11.4699 4.77807 -9.4234 1.03284 11.6659 -11.8364 13.4448 -5.25731 -0.440657 0.0462048 0.000530889 0.662642 2.11397 2.61944 -0.396844 0.0386671 3.60017 -0.523537 0.459185 -4.43382 -2.70386 -27.5821 1.9621 -2.31524 -52.0044 -18.4594 -17.2175 -11.4266 31.8388 0.714541 4.48766 9.63912 -2.63247 37.836 5.80055 9.14622 34.1104 -33.7102 3.79382 6.07855 34.5245 3.23495 -23.2264 8.79613 0.220067 17.2528 3.16029 10.7398 -2.21872 12.5132 6.52336 -14.7082 -2.39502 0.679737 -1.38477e-009 8.75232e-006 -1.47222e-008 
-5.37224 105.192 41.9308 2.09608 7.37519 178.413 -11.4787 4.75891 -9.44148 1.07081 11.5598 -11.7357 13.4213 -5.16991 -0.449859 0.0462048 0.000530889 0.662642 2.03218 3.00461 -0.338959 0.150762 3.11105 -0.479397 0.417882 -4.38065 -2.79794 -27.5686 1.98748 -2.39271 -51.8961 -18.7023 -16.9049 -11.3893 32.2139 0.962401 4.14511 9.66404 -2.57833 37.7628 5.78453 9.1319 34.2094 -33.5541 3.67599 6.17622 34.0957 3.24294 -23.557 8.86517 -0.213595 17.2578 3.12719 10.7502 -2.21467 12.5588 6.61921 -14.7202 -2.39423 0.680288 -1.38477e-009 8.75232e-006 -1.47222e-008 
-5.38954 105.195 41.9504 2.11809 7.35151 178.336 -11.4737 4.69766 -9.43055 1.06519 11.5608 -11.6744 13.4442 -5.15078 -0.452928 0.0462048 0.000530889 0.662642 1.9912 3.2723 -0.322316 0.13097 2.78395 -0.455821 0.401369 -4.3873 -2.86843 -27.4763 1.99771 -2.43882 -51.7376 -18.8535 -16.5986 -11.3916 32.3957 1.14 3.88963 9.68869 -2.30023 37.6905 5.79494 9.17692 34.3807 -33.439 3.59199 6.22865 33.6079 3.33618 -23.7608 8.93852 -0.631167 17.267 3.08876 10.7654 -2.21236 12.6205 6.67788 -14.7281 -2.40632 0.680049 -1.38477e-009 8.75232e-006 -1.47222e-008 
-5.39462 105.196 41.9585 2.13183 7.32762 178.268 -11.4559 4.64463 -9.39753 1.03821 11.5639 -11.6577 13.4556 -5.14265 -0.456138 0.0462048 0.000530889 0.662642 1.9843 3.46296 -0.328759 0.0336987 2.54725 -0.439805 0.439329 -4.3912 -2.85162 -27.337 2.00471 -2.48365 -51.5332 -18.8905 -16.2854 -11.4728 32.2905 1.32709 4.04147 9.68276 -2.13975 37.6644 5.81862 9.2383 34.5651 -33.5184 3.52589 6.14177 33.4985 3.4536 -23.4345 8.92951 -0.511188 17.2746 3.07001 10.7799 -2.21944 12.6447 6.72277 -14.697 -2.42456 0.680118 -1.38477e-009 8.75232e-006 -1.47222e-008 
-5.3898 105.196 41.956 2.17248 7.29862 178.198 -11.4143 4.63004 -9.37399 1.05003 11.5011 -11.6382 13.4318 -5.1082 -0.458543 0.0462048 0.000530889 0.662642 1.99122 3.64824 -0.329887 -0.00903326 2.31173 -0.426377 0.443491 -4.36311 -2.80037 -27.2581 2.00931 -2.51108 -51.35 -18.9297 -16.0366 -11.55 32.1159 1.52792 4.33956 9.66186 -2.19483 37.6125 5.82749 9.27248 34.7834 -33.7483 3.47687 5.9539 33.9158 3.48935 -22.6672 8.8593 0.0351765 17.3199 3.07646 10.8084 -2.22974 12.6239 6.76419 -14.7104 -2.42905 0.680424 -1.38477e-009 8.75232e-006 -1.47222e-008 
-5.37354 105.193 41.9475 2.24762 7.27328 178.139 -11.3448 4.63181 -9.3642 1.10029 11.4368 -11.6119 13.387 -5.08148 -0.458907 0.0462048 0.000530889 0.662642 2.00673 3.86845 -0.315272 0.0091133 2.06214 -0.411545 0.338916 -4.32059 -2.7874 -27.2958 2.00534 -2.49268 -51.2026 -19.0589 -15.9086 -11.5418 32.0706 1.67173 4.40539 9.65416 -2.31154 37.5224 5.82169 9.28473 34.9853 -33.9166 3.42741 5.81349 34.474 3.44233 -22.0855 8.81289 0.437912 17.4151 3.07074 10.8621 -2.22831 12.6431 6.75768 -14.7689 -2.44741 0.680918 -1.38477e-009 8.75232e-006 -1.47222e-008 
-5.34543 105.185 41.9344 2.32903 7.25249 178.104 -11.2648 4.60289 -9.35675 1.14809 11.4661 -11.6042 13.343 -5.11192 -0.454578 0.0462048 0.000530889 0.662642 2.04017 4.06833 -0.284963 -0.00644656 1.87452 -0.379617 0.207475 -4.30292 -2.8127 -27.3968 1.99673 -2.44952 -51.0424 -19.1881 -15.8897 -11.5035 31.9607 1.74277 4.1873 9.6656 -2.42118 37.482 5.81947 9.29526 35.0762 -33.9274 3.35979 5.78598 34.7238 3.41298 -22.0327 8.81659 0.434235 17.5288 3.02675 10.9299 -2.21321 12.7401 6.68876 -14.8149 -2.50288 0.68155 -1.38477e-009 8.75232e-006 -1.47222e-008 
-5.30564 105.173 41.9087 2.3876 7.22499 178.089 -11.2057 4.5438 -9.36633 1.19061 11.5714 -11.5979 13.3074 -5.18983 -0.445168 0.0462048 0.000530889 0.662642 2.06356 4.14324 -0.241293 -0.0546203 1.8404 -0.328243 0.166435 -4.3281 -2.81776 -27.4857 1.99036 -2.41535 -50.8602 -19.1721 -15.9321 -11.5306 31.5576 1.74874 3.97194 9.67696 -2.54065 37.5245 5.82642 9.29798 35.0813 -33.8622 3.30398 5.81557 34.6852 3.43333 -22.1812 8.84108 0.260063 17.6259 2.98354 10.988 -2.20091 12.8176 6.61888 -14.8477 -2.55425 0.682237 -1.38477e-009 8.75232e-006 -1.47222e-008 
-5.25554 105.168 41.8609 2.42212 7.19828 178.103 -11.1753 4.52694 -9.40551 1.25492 11.6413 -11.5762 13.2716 -5.26247 -0.436383 0.0462048 0.000530889 0.662642 2.03069 4.07509 -0.198662 -0.0416163 1.9665 -0.285904 0.195132 -4.36764 -2.75971 -27.5541 1.98029 -2.37385 -50.7252 -19.055 -15.9969 -11.5784 31.2385 1.61773 3.98522 9.67644 -2.52827 37.6005 5.83121 9.28593 35.0813 -33.7632 3.30149 5.88451 34.6224 3.4071 -22.1483 8.86481 0.140697 17.6999 2.99599 11.0225 -2.1979 12.7894 6.57257 -14.8883 -2.55851 0.682893 -1.38477e-009 8.75232e-006 -1.47222e-008 
-5.19932 105.166 41.7946 2.45639 7.19628 178.169 -11.1326 4.60669 -9.43664 1.32962 11.6218 -11.6001 13.2334 -5.30685 -0.430648 0.0462048 0.000530889 0.662642 1.97437 3.94076 -0.177369 0.0247827 2.19946 -0.274427 0.213352 -4.38554 -2.66025 -27.6336 1.95737 -2.29266 -50.712 -19.0277 -16.1009 -11.5114 31.5578 1.30979 4.0764 9.67667 -2.28378 37.6946 5.83798 9.27291 35.0484 -33.5923 3.34364 6.02709 34.5912 3.28052 -22.0586 8.87889 0.0884106 17.772 3.04884 11.0413 -2.1836 12.715 6.47344 -14.9227 -2.53873 0.683469 -1.38477e-009 8.75232e-006 -1.47222e-008 
-5.14193 105.165 41.7266 2.51385 7.21098 178.291 -11.0302 4.72905 -9.40738 1.36993 11.576 -11.7457 13.2123 -5.33968 -0.426941 0.0462048 0.000530889 0.662642 1.99199 3.77904 -0.174756 0.0394051 2.52485 -0.275579 0.214836 -4.40182 -2.56266 -27.7542 1.92411 -2.17459 -50.7993 -19.1213 -16.3203 -11.334 32.184 0.957578 4.01994 9.68467 -2.12201 37.8206 5.84539 9.25179 34.9349 -33.3975 3.4114 6.19109 34.5124 3.16091 -22.2279 8.86176 0.135724 17.8716 3.06632 11.0712 -2.14407 12.7021 6.27555 -14.9421 -2.53564 0.683924 -1.38477e-009 8.75232e-006 -1.47222e-008 
-5.08731 105.166 41.6692 2.59603 7.19553 178.435 -10.8763 4.79893 -9.32328 1.37373 11.5588 -11.9875 13.2254 -5.3617 -0.425111 0.0462048 0.000530889 0.662642 2.08316 3.55211 -0.168525 0.0364361 2.95109 -0.273747 0.18158 -4.48498 -2.44311 -27.9793 1.88221 -2.01548 -50.8487 -19.1416 -16.6906 -11.2283 32.2194 0.710115 3.96116 9.6812 -2.40377 37.9309 5.83025 9.18482 34.8083 -33.2843 3.53014 6.27024 34.4527 3.17739 -22.5686 8.82532 0.240109 18.0103 3.00086 11.1398 -2.10108 12.7596 6.04394 -14.9601 -2.55027 0.684195 -1.38477e-009 8.75232e-006 -1.47222e-008 
-5.03892 105.168 41.613 2.6846 7.13045 178.576 -10.7214 4.82803 -9.23701 1.38646 11.5094 -12.2373 13.261 -5.34556 -0.42687 0.0462048 0.000530889 0.662642 2.10517 3.23994 -0.168266 0.214085 3.4372 -0.306239 0.00941038 -4.67074 -2.23001 -28.3861 1.82192 -1.77771 -50.7278 -18.9822 -17.1209 -11.2831 31.6684 0.509922 4.12427 9.65799 -2.85732 37.9785 5.78957 9.0794 34.7183 -33.2438 3.70724 6.2704 34.5092 3.3063 -22.6856 8.83699 0.147162 18.1639 2.88592 11.2366 -2.07553 12.8175 5.82941 -14.9829 -2.57092 0.684214 -1.38477e-009 8.75232e-006 -1.47222e-008 
